<svg xmlns="http://www.w3.org/2000/svg" viewBox="0 0 411.12 58.38"><defs><style>.cls-1{fill:#fff;}</style></defs><g id="Layer_2" data-name="Layer 2"><g id="Layer_1-2" data-name="Layer 1"><path class="cls-1" d="M31.36,18.09a9.89,9.89,0,0,0-.67-2.17,7.09,7.09,0,0,0-1.58-2.29,9,9,0,0,0-2.8-1.82A10.78,10.78,0,0,0,22,11.06a8.08,8.08,0,0,0-5.57,1.86,5.48,5.48,0,0,0-2.09,4.14,4.81,4.81,0,0,0,1.3,3.44,7.67,7.67,0,0,0,4.23,1.94l7.5,1.42a23.07,23.07,0,0,1,7,2.33A19.36,19.36,0,0,1,39.5,30,14.9,14.9,0,0,1,42.58,35a16.16,16.16,0,0,1,1,5.73,16.45,16.45,0,0,1-1.34,6.47,16.75,16.75,0,0,1-4,5.65,20.52,20.52,0,0,1-6.52,4,23.73,23.73,0,0,1-8.85,1.54,26.67,26.67,0,0,1-10-1.7,22.06,22.06,0,0,1-7-4.3,18.21,18.21,0,0,1-4.18-5.77A20.12,20.12,0,0,1,0,40.45l11.46-2.77a11.81,11.81,0,0,0,.9,3.68,8.79,8.79,0,0,0,2.18,3.08,10.46,10.46,0,0,0,3.55,2.09,14.22,14.22,0,0,0,5,.79,9.31,9.31,0,0,0,5.81-1.62A5.11,5.11,0,0,0,31,41.48a4.66,4.66,0,0,0-1.62-3.6,9.09,9.09,0,0,0-4.39-2L17.3,34.44Q10.11,33.1,6.08,28.68A15.32,15.32,0,0,1,2.05,18a16.38,16.38,0,0,1,1.62-7.27A17.46,17.46,0,0,1,8.06,5.06a20.81,20.81,0,0,1,6.4-3.72A22,22,0,0,1,22.12,0a25,25,0,0,1,8.93,1.42A19.49,19.49,0,0,1,37.17,5a15.31,15.31,0,0,1,3.67,4.82,20.62,20.62,0,0,1,1.74,5.09Z"/><path class="cls-1" d="M77.89,58.38a30.75,30.75,0,0,1-11.37-2.09,27.3,27.3,0,0,1-15.41-15,30.07,30.07,0,0,1-2.29-11.93,30,30,0,0,1,2.33-12A28,28,0,0,1,66.64,2.13,29.24,29.24,0,0,1,77.74,0a29.58,29.58,0,0,1,10.9,1.82,26,26,0,0,1,7.74,4.62,22.34,22.34,0,0,1,4.94,6.12,26.82,26.82,0,0,1,2.49,6.32L92,22.59a14.78,14.78,0,0,0-1.23-3.23,12.56,12.56,0,0,0-2.57-3.44A13.14,13.14,0,0,0,84,13.23a16.46,16.46,0,0,0-6.28-1.06,16.72,16.72,0,0,0-5.69,1,15.4,15.4,0,0,0-5.14,3.12,15.78,15.78,0,0,0-3.71,5.34,18.91,18.91,0,0,0-1.42,7.66,17.52,17.52,0,0,0,1.34,7,15.7,15.7,0,0,0,3.6,5.21,15.19,15.19,0,0,0,5.13,3.24,16.68,16.68,0,0,0,6,1.11,16.5,16.5,0,0,0,6.25-1.07,14.21,14.21,0,0,0,4.34-2.68,13.68,13.68,0,0,0,2.73-3.44,15.91,15.91,0,0,0,1.38-3.32l11.93,3.4A28.61,28.61,0,0,1,102,45.11a24,24,0,0,1-5,6.36,26.75,26.75,0,0,1-7.94,4.94A29.19,29.19,0,0,1,77.89,58.38Z"/><path class="cls-1" d="M143.86,45.82H122.21l-4,11.38H105.07l21.09-56h14.46l20.86,56H147.89ZM126.32,34.44h13.59l-6.72-19.35Z"/><path class="cls-1" d="M168.35,57.2v-56h12.48V45.27H205V57.2Z"/><path class="cls-1" d="M213.06,57.2v-56h35.47V13h-23V23.62H246.4v11H225.54V45.35h23.07V57.2Z"/><path class="cls-1" d="M257.15,57.2v-56h19.59A28.8,28.8,0,0,1,286.89,3a24,24,0,0,1,8.49,5.37,26.17,26.17,0,0,1,5.81,8.81,31.56,31.56,0,0,1,2.17,12.13,31.24,31.24,0,0,1-2.17,12.09,25.24,25.24,0,0,1-5.89,8.73,24.7,24.7,0,0,1-8.57,5.29,29.42,29.42,0,0,1-10.15,1.78Zm19.19-6.88a20.76,20.76,0,0,0,7.35-1.3,16.86,16.86,0,0,0,6.08-3.91,18.26,18.26,0,0,0,4.11-6.56,25.94,25.94,0,0,0,1.5-9.24,26.29,26.29,0,0,0-1.5-9.28,19.06,19.06,0,0,0-4.07-6.64,16.88,16.88,0,0,0-6-4,20,20,0,0,0-7.31-1.34H264.89V50.32Z"/><path class="cls-1" d="M311,57.2v-56h19.6A28.8,28.8,0,0,1,340.77,3a24,24,0,0,1,8.49,5.37,26.17,26.17,0,0,1,5.81,8.81,31.75,31.75,0,0,1,2.17,12.13,31.43,31.43,0,0,1-2.17,12.09,25.24,25.24,0,0,1-5.89,8.73,24.7,24.7,0,0,1-8.57,5.29,29.42,29.42,0,0,1-10.15,1.78Zm19.2-6.88a20.76,20.76,0,0,0,7.35-1.3,16.94,16.94,0,0,0,6.08-3.91,18.26,18.26,0,0,0,4.11-6.56,25.94,25.94,0,0,0,1.5-9.24,26.29,26.29,0,0,0-1.5-9.28,19.06,19.06,0,0,0-4.07-6.64,16.88,16.88,0,0,0-6-4,20,20,0,0,0-7.31-1.34H318.77V50.32Z"/><path class="cls-1" d="M364.9,57.2v-56h19.6A28.8,28.8,0,0,1,394.65,3a24,24,0,0,1,8.49,5.37A26.17,26.17,0,0,1,409,17.18a31.75,31.75,0,0,1,2.17,12.13A31.43,31.43,0,0,1,409,41.4a25.24,25.24,0,0,1-5.89,8.73,24.8,24.8,0,0,1-8.57,5.29,29.42,29.42,0,0,1-10.15,1.78Zm19.2-6.88a20.76,20.76,0,0,0,7.35-1.3,16.94,16.94,0,0,0,6.08-3.91,18.26,18.26,0,0,0,4.11-6.56,25.94,25.94,0,0,0,1.5-9.24,26.29,26.29,0,0,0-1.5-9.28,19.06,19.06,0,0,0-4.07-6.64,16.88,16.88,0,0,0-6-4,20.05,20.05,0,0,0-7.31-1.34H372.64V50.32Z"/></g></g></svg>