<svg xmlns="http://www.w3.org/2000/svg" viewBox="0 0 88.19 81.4"><defs><style>.cls-1{fill:#26bdf9;}</style></defs><g id="Layer_2" data-name="Layer 2"><g id="Layer_1-2" data-name="Layer 1"><path class="cls-1" d="M84.91,70.71c0,6.06-9.31,7.52-13.82,7.44-2.55-.05-5.4-.64-7.2-2.58-3.1-3.34,1.28-6,3.75-7.89,5.42-4.05,7.9-9.39,4.68-15.78-2.53-5-7.08-8.44-10.92-12.43l1.73-1.72L57.28,31.9a4.08,4.08,0,0,0-4.08-1l-1.8-1.79a1.22,1.22,0,0,0-.17-.15C64.7,14.88,73.51,2.49,71.34.33,69-2,54.33,8.75,38.64,24.43c-3.11,3.12-6,6.19-8.7,9.14.06-3.19-1-4.75-2.65-7.31l-14.84,7.3c2.07,5.57,7.66,8.17,10,7.91a1.36,1.36,0,0,0,.26,1.23c.84.84,3.26-.2,5.39-2.34S31.24,35.81,30.4,35a1,1,0,0,0-.7-.29l.15-.68c1.25-.76,2.22-1,2.6-.67.74.75-1.09,3.78-4.09,6.78s-6,4.83-6.78,4.08a.73.73,0,0,1-.16-.54c-5.43,7-8.21,12.16-6.88,13.48,2.37,2.37,17-8.42,32.7-24.11l1.11-1.12a.76.76,0,0,0,.11.14L50.4,34a4.08,4.08,0,0,0,1.11,3.69l5.85,5.85,1.81-1.82c4.5,4.47,10,8.63,11.36,14.75,1.88,8.26-11.44,9.31-11.08,17.06.34,7.31,10.21,8.41,15.57,7.71,5.63-.74,13.13-3.8,13.17-10.51A1.64,1.64,0,0,0,84.91,70.71ZM7.37,69.36a.26.26,0,0,1,.12.17.26.26,0,0,1,0,.21l-.56.87a.28.28,0,0,1-.23.13.3.3,0,0,1-.15,0l-.44-.28A.3.3,0,0,1,6,70.24.31.31,0,0,1,6,70l.57-.87a.26.26,0,0,1,.37-.08Zm1.56-9.93a.28.28,0,0,1,.12-.37l1.59-.8a.28.28,0,0,1,.37.13l.23.46a.26.26,0,0,1,0,.21.25.25,0,0,1-.14.16L9.53,60a.27.27,0,0,1-.12,0H9.32a.32.32,0,0,1-.16-.14Zm-3,2L5.74,61a.28.28,0,0,1,.12-.37l1.6-.79a.26.26,0,0,1,.21,0,.29.29,0,0,1,.16.13l.23.47a.27.27,0,0,1-.13.37l-1.59.79-.12,0H6.13A.36.36,0,0,1,6,61.48ZM9.3,66.37a.27.27,0,0,1,.08.38l-1,1.49a.28.28,0,0,1-.23.13A.3.3,0,0,1,8,68.32L7.6,68a.3.3,0,0,1-.12-.17.31.31,0,0,1,0-.21l1-1.49a.27.27,0,0,1,.38-.08ZM4.87,62a.28.28,0,0,1-.12.37l-1.6.79a.24.24,0,0,1-.12,0,.27.27,0,0,1-.24-.15l-.24-.47a.26.26,0,0,1,0-.21.29.29,0,0,1,.13-.16l1.6-.79a.28.28,0,0,1,.37.12Zm7.24-4.19a.3.3,0,0,1,0-.21.25.25,0,0,1,.14-.16l.93-.47a.3.3,0,0,1,.21,0,.27.27,0,0,1,.16.14l.23.46a.28.28,0,0,1-.12.37l-.94.47a.25.25,0,0,1-.12,0,.25.25,0,0,1-.24-.15ZM1.68,63.62a.24.24,0,0,1,0,.2.25.25,0,0,1-.14.16l-.93.47a.27.27,0,0,1-.12,0,.28.28,0,0,1-.25-.16L0,63.86a.31.31,0,0,1,0-.21.32.32,0,0,1,.14-.16L1.08,63a.27.27,0,0,1,.37.12Zm10.6-1.36a.27.27,0,0,1-.23.12.28.28,0,0,1-.15,0l-.43-.28a.23.23,0,0,1-.12-.18.24.24,0,0,1,0-.2l1-1.5a.28.28,0,0,1,.38-.08l.44.29a.27.27,0,0,1,.08.37ZM15.36,59l-.14,1a.29.29,0,0,1-.11.19.34.34,0,0,1-.17,0h0l-.52-.08a.27.27,0,0,1-.23-.3l.09-.66,0,.06a.27.27,0,0,1-.23.12.28.28,0,0,1-.15,0l-.43-.28a.25.25,0,0,1-.12-.18.24.24,0,0,1,0-.2l.56-.88a.27.27,0,0,1,.38-.08l.44.28a.32.32,0,0,1,.12.18.28.28,0,0,1,0,.2l-.14.22.49.07A.27.27,0,0,1,15.36,59ZM15,61.78l-.25,1.76a.27.27,0,0,1-.27.24h0l-.51-.07a.27.27,0,0,1-.18-.11.25.25,0,0,1-.06-.2l.26-1.76a.25.25,0,0,1,.1-.18.23.23,0,0,1,.21-.05l.51.07A.27.27,0,0,1,15,61.78ZM13.4,72.15a.25.25,0,0,1,.06.2l-.15,1a.25.25,0,0,1-.11.18.23.23,0,0,1-.16.06h0l-.52-.08a.32.32,0,0,1-.18-.1.3.3,0,0,1-.05-.21l.15-1a.27.27,0,0,1,.31-.23l.51.07A.25.25,0,0,1,13.4,72.15Zm-2.17-8.77a.27.27,0,0,1,.09.37l-1,1.5a.27.27,0,0,1-.23.12.28.28,0,0,1-.15,0l-.44-.28a.25.25,0,0,1-.11-.17.26.26,0,0,1,0-.21l1-1.49a.28.28,0,0,1,.38-.09ZM14,68.83l-.25,1.76a.27.27,0,0,1-.11.18.25.25,0,0,1-.16.06h0l-.52-.07a.27.27,0,0,1-.23-.31l.25-1.76A.27.27,0,0,1,13,68.5a.21.21,0,0,1,.2,0l.52.07A.27.27,0,0,1,14,68.83Zm.5-3.53-.25,1.77a.29.29,0,0,1-.11.18.28.28,0,0,1-.16,0h0l-.52-.08a.27.27,0,0,1-.23-.3l.25-1.77a.28.28,0,0,1,.31-.23l.52.08A.26.26,0,0,1,14.46,65.3Z"/></g></g></svg>