<svg xmlns="http://www.w3.org/2000/svg" xmlns:xlink="http://www.w3.org/1999/xlink" viewBox="0 0 78 78"><defs><style>.cls-1{fill:url(#radial-gradient);}.cls-2{fill:url(#linear-gradient);}.cls-3{fill:url(#linear-gradient-2);}.cls-4{fill:url(#radial-gradient-2);}</style><radialGradient id="radial-gradient" cx="21.16" cy="59.65" r="58.55" gradientUnits="userSpaceOnUse"><stop offset="0" stop-color="#7d9bd1"/><stop offset="1" stop-color="#2c384c"/></radialGradient><linearGradient id="linear-gradient" x1="39" y1="8.83" x2="39" y2="73.65" gradientTransform="translate(0 78) rotate(-90)" gradientUnits="userSpaceOnUse"><stop offset="0" stop-color="#142132"/><stop offset="1" stop-color="#253c5f"/></linearGradient><linearGradient id="linear-gradient-2" x1="7.11" y1="39.72" x2="65" y2="39.72" gradientUnits="userSpaceOnUse"><stop offset="0" stop-color="#0f1935" stop-opacity="0.4"/><stop offset="1" stop-color="#020202" stop-opacity="0.3"/></linearGradient><radialGradient id="radial-gradient-2" cx="56.6" cy="94.75" r="110.94" gradientUnits="userSpaceOnUse"><stop offset="0" stop-color="#00a7e8"/><stop offset="1" stop-color="#00abed"/></radialGradient></defs><g id="Layer_2" data-name="Layer 2"><g id="Layer_1-2" data-name="Layer 1"><rect class="cls-1" width="78" height="78" rx="8.36"/><rect class="cls-2" x="2" y="2" width="74" height="74" rx="6.36" transform="translate(78) rotate(90)"/><path class="cls-3" d="M62.84,59.42c0,4-6.11,4.93-9.07,4.88a6.54,6.54,0,0,1-4.72-1.69c-2-2.2.83-4,2.46-5.18,3.55-2.66,5.18-6.16,3.07-10.36-1.66-3.29-4.65-5.54-7.17-8.16l1.14-1.13-3.84-3.84A2.68,2.68,0,0,0,42,33.27L40.85,32.1l-.12-.1c8.85-9.24,14.63-17.36,13.21-18.79S42.77,18.74,32.47,29c-2,2-4,4.06-5.71,6,0-2.1-.66-3.12-1.74-4.8L15.28,35c1.36,3.66,5,5.37,6.54,5.19A.89.89,0,0,0,22,41c.55.55,2.14-.14,3.54-1.54s2.09-3,1.53-3.54a.69.69,0,0,0-.46-.18c0-.15.07-.3.1-.45.82-.5,1.46-.69,1.71-.44.48.49-.71,2.48-2.68,4.45s-4,3.17-4.45,2.68a.48.48,0,0,1-.11-.35c-3.57,4.6-5.39,8-4.52,8.84C18.21,52.06,27.82,45,38.11,34.68l.73-.74.08.09,1.27,1.27a2.68,2.68,0,0,0,.73,2.43l3.84,3.84L46,40.37c2.95,2.94,6.53,5.67,7.45,9.68,1.24,5.42-7.51,6.11-7.27,11.21.23,4.79,6.7,5.51,10.22,5.05,3.7-.48,8.62-2.49,8.65-6.89A1.08,1.08,0,0,0,62.84,59.42ZM12,58.53a.15.15,0,0,1,.08.11.17.17,0,0,1,0,.14l-.37.57a.18.18,0,0,1-.15.08.19.19,0,0,1-.1,0l-.29-.18a.19.19,0,0,1-.07-.11A.17.17,0,0,1,11,59l.37-.57a.18.18,0,0,1,.25-.06ZM13,52a.17.17,0,0,1,.08-.24l1-.52a.19.19,0,0,1,.25.08l.15.3a.18.18,0,0,1-.08.24l-1.05.52a.11.11,0,0,1-.08,0h-.06a.15.15,0,0,1-.1-.09ZM11,53.36l-.15-.31a.17.17,0,0,1,.08-.24l1-.52a.17.17,0,0,1,.14,0,.13.13,0,0,1,.1.09l.16.3a.21.21,0,0,1-.08.25l-1.05.52-.08,0h-.06A.22.22,0,0,1,11,53.36Zm2.18,3.21a.17.17,0,0,1,.06.24l-.64,1a.18.18,0,0,1-.15.08l-.09,0-.29-.19a.15.15,0,0,1-.08-.11.18.18,0,0,1,0-.13l.64-1a.19.19,0,0,1,.25,0ZM10.3,53.72a.17.17,0,0,1-.08.24l-1,.52-.08,0a.18.18,0,0,1-.16-.1l-.16-.31a.2.2,0,0,1,0-.13.2.2,0,0,1,.09-.11l1.05-.52a.18.18,0,0,1,.24.08ZM15.06,51a.17.17,0,0,1,0-.14.19.19,0,0,1,.09-.11l.61-.3a.17.17,0,0,1,.14,0,.18.18,0,0,1,.1.09l.16.31a.19.19,0,0,1-.09.24l-.61.3-.08,0a.19.19,0,0,1-.16-.1ZM8.21,54.76a.17.17,0,0,1,0,.14.18.18,0,0,1-.09.1l-.61.31H7.44a.16.16,0,0,1-.16-.1l-.15-.3a.17.17,0,0,1,0-.14.15.15,0,0,1,.09-.1l.61-.31a.18.18,0,0,1,.24.08Zm7-.89A.18.18,0,0,1,15,54a.19.19,0,0,1-.1,0l-.29-.18a.19.19,0,0,1-.07-.12.15.15,0,0,1,0-.13l.63-1a.18.18,0,0,1,.25-.06l.29.19a.18.18,0,0,1,.05.25Zm2-2.15-.09.67a.24.24,0,0,1-.07.12.17.17,0,0,1-.11,0h0l-.34,0a.19.19,0,0,1-.15-.2l.06-.44,0,0a.19.19,0,0,1-.15.09.17.17,0,0,1-.1,0l-.29-.19a.18.18,0,0,1-.08-.11.17.17,0,0,1,0-.14l.37-.57a.17.17,0,0,1,.25-.05l.28.18a.21.21,0,0,1,.08.11.22.22,0,0,1,0,.14l-.09.14.32.05A.17.17,0,0,1,17.19,51.72Zm-.26,1.83-.16,1.16a.18.18,0,0,1-.18.15h0l-.34,0a.14.14,0,0,1-.11-.07.15.15,0,0,1,0-.13l.17-1.16a.14.14,0,0,1,.07-.11.15.15,0,0,1,.13,0l.34.05A.17.17,0,0,1,16.93,53.55Zm-1,6.81a.21.21,0,0,1,0,.13l-.1.68a.15.15,0,0,1-.07.12.21.21,0,0,1-.1,0h0l-.34,0a.24.24,0,0,1-.12-.07.17.17,0,0,1,0-.14l.1-.67a.18.18,0,0,1,.2-.16l.34,0A.21.21,0,0,1,15.91,60.36ZM14.48,54.6a.18.18,0,0,1,.06.25l-.64,1a.18.18,0,0,1-.15.08.19.19,0,0,1-.1,0l-.28-.18a.21.21,0,0,1-.08-.11.22.22,0,0,1,0-.14l.64-1a.17.17,0,0,1,.24,0Zm1.79,3.58-.16,1.16a.29.29,0,0,1-.07.12.23.23,0,0,1-.11,0h0l-.34-.05a.18.18,0,0,1-.15-.2l.16-1.16a.23.23,0,0,1,.08-.12.14.14,0,0,1,.13,0l.34,0A.17.17,0,0,1,16.27,58.18Zm.33-2.31L16.44,57a.24.24,0,0,1-.07.12.17.17,0,0,1-.11,0h0l-.34,0a.19.19,0,0,1-.15-.21l.17-1.15a.15.15,0,0,1,.07-.12.14.14,0,0,1,.13,0l.34,0A.18.18,0,0,1,16.6,55.87Z"/><path class="cls-4" d="M62.84,57.42c0,4-6.11,4.93-9.07,4.88a6.54,6.54,0,0,1-4.72-1.69c-2-2.2.83-4,2.46-5.18,3.55-2.66,5.18-6.16,3.07-10.36-1.66-3.29-4.65-5.54-7.17-8.16l1.14-1.13-3.84-3.84A2.68,2.68,0,0,0,42,31.27L40.85,30.1l-.12-.1c8.85-9.24,14.63-17.36,13.21-18.79S42.77,16.74,32.47,27c-2,2-4,4.06-5.71,6,0-2.1-.66-3.12-1.74-4.8L15.28,33c1.36,3.66,5,5.37,6.54,5.19A.89.89,0,0,0,22,39c.55.55,2.14-.14,3.54-1.54s2.09-3,1.53-3.54a.69.69,0,0,0-.46-.18c0-.15.07-.3.1-.45.82-.5,1.46-.69,1.71-.44.48.49-.71,2.48-2.68,4.45s-4,3.17-4.45,2.68a.48.48,0,0,1-.11-.35c-3.57,4.6-5.39,8-4.52,8.84C18.21,50.06,27.82,43,38.11,32.68l.73-.74.08.09,1.27,1.27a2.68,2.68,0,0,0,.73,2.43l3.84,3.84L46,38.37c2.95,2.94,6.53,5.67,7.45,9.68,1.24,5.42-7.51,6.11-7.27,11.21.23,4.79,6.7,5.51,10.22,5.05,3.7-.48,8.62-2.49,8.65-6.89A1.08,1.08,0,0,0,62.84,57.42ZM12,56.53a.15.15,0,0,1,.08.11.17.17,0,0,1,0,.14l-.37.57a.18.18,0,0,1-.15.08.19.19,0,0,1-.1,0l-.29-.18a.19.19,0,0,1-.07-.11A.17.17,0,0,1,11,57l.37-.57a.18.18,0,0,1,.25-.06ZM13,50a.17.17,0,0,1,.08-.24l1-.52a.19.19,0,0,1,.25.08l.15.3a.18.18,0,0,1-.08.24l-1.05.52a.11.11,0,0,1-.08,0h-.06a.15.15,0,0,1-.1-.09ZM11,51.36l-.15-.31a.17.17,0,0,1,.08-.24l1-.52a.17.17,0,0,1,.14,0,.13.13,0,0,1,.1.09l.16.3a.21.21,0,0,1-.08.25l-1.05.52-.08,0h-.06A.22.22,0,0,1,11,51.36Zm2.18,3.21a.17.17,0,0,1,.06.24l-.64,1a.18.18,0,0,1-.15.08l-.09,0-.29-.19a.15.15,0,0,1-.08-.11.18.18,0,0,1,0-.13l.64-1a.19.19,0,0,1,.25,0ZM10.3,51.72a.17.17,0,0,1-.08.24l-1,.52-.08,0a.18.18,0,0,1-.16-.1l-.16-.31a.2.2,0,0,1,0-.13.2.2,0,0,1,.09-.11l1.05-.52a.18.18,0,0,1,.24.08ZM15.06,49a.17.17,0,0,1,0-.14.19.19,0,0,1,.09-.11l.61-.3a.17.17,0,0,1,.14,0,.18.18,0,0,1,.1.09l.16.31a.19.19,0,0,1-.09.24l-.61.3-.08,0a.19.19,0,0,1-.16-.1ZM8.21,52.76a.17.17,0,0,1,0,.14.18.18,0,0,1-.09.1l-.61.31H7.44a.16.16,0,0,1-.16-.1l-.15-.3a.17.17,0,0,1,0-.14.15.15,0,0,1,.09-.1l.61-.31a.18.18,0,0,1,.24.08Zm7-.89A.18.18,0,0,1,15,52a.19.19,0,0,1-.1,0l-.29-.18a.19.19,0,0,1-.07-.12.15.15,0,0,1,0-.13l.63-1a.18.18,0,0,1,.25-.06l.29.19a.18.18,0,0,1,.05.25Zm2-2.15-.09.67a.24.24,0,0,1-.07.12.17.17,0,0,1-.11,0h0l-.34,0a.19.19,0,0,1-.15-.2l.06-.44,0,0a.19.19,0,0,1-.15.09.17.17,0,0,1-.1,0l-.29-.19a.18.18,0,0,1-.08-.11.17.17,0,0,1,0-.14l.37-.57a.17.17,0,0,1,.25-.05l.28.18a.21.21,0,0,1,.08.11.22.22,0,0,1,0,.14l-.09.14.32.05A.17.17,0,0,1,17.19,49.72Zm-.26,1.83-.16,1.16a.18.18,0,0,1-.18.15h0l-.34,0a.14.14,0,0,1-.11-.07.15.15,0,0,1,0-.13l.17-1.16a.14.14,0,0,1,.07-.11.15.15,0,0,1,.13,0l.34.05A.17.17,0,0,1,16.93,51.55Zm-1,6.81a.21.21,0,0,1,0,.13l-.1.68a.15.15,0,0,1-.07.12.21.21,0,0,1-.1,0h0l-.34,0a.24.24,0,0,1-.12-.07.17.17,0,0,1,0-.14l.1-.67a.18.18,0,0,1,.2-.16l.34,0A.21.21,0,0,1,15.91,58.36ZM14.48,52.6a.18.18,0,0,1,.06.25l-.64,1a.18.18,0,0,1-.15.08.19.19,0,0,1-.1,0l-.28-.18a.21.21,0,0,1-.08-.11.22.22,0,0,1,0-.14l.64-1a.17.17,0,0,1,.24,0Zm1.79,3.58-.16,1.16a.29.29,0,0,1-.07.12.23.23,0,0,1-.11,0h0l-.34-.05a.18.18,0,0,1-.15-.2l.16-1.16a.23.23,0,0,1,.08-.12.14.14,0,0,1,.13,0l.34,0A.17.17,0,0,1,16.27,56.18Zm.33-2.31L16.44,55a.24.24,0,0,1-.07.12.17.17,0,0,1-.11,0h0l-.34,0a.19.19,0,0,1-.15-.21l.17-1.15a.15.15,0,0,1,.07-.12.14.14,0,0,1,.13,0l.34,0A.18.18,0,0,1,16.6,53.87Z"/></g></g></svg>